# AST/ASF file generated using VICON BodyLanguage
# -----------------------------------------------
:version 1.10
:name VICON
:units
  mass 1.0
  length 0.45
  angle deg
:documentation
   .ast/.asf automatically generated from VICON data using
   VICON BodyBuilder and BodyLanguage model FoxedUp or BRILLIANT.MOD
:root
   order TX TY TZ RX RY RZ
   axis XYZ
   position 0 0 0  
   orientation 0 0 0 
:bonedata
  begin
     id 1 
     name lhipjoint
     direction 0.566809 -0.746272 0.349008 
     length 2.40479 
     axis 0 0 0  XYZ
  end
  begin
     id 2 
     name lfemur
     direction 0.34202 -0.939693 0  
     length 7.1578  
     axis 0 0 20  XYZ
    dof rx ry rz
    limits (-160.0 20.0)
           (-70.0 70.0)
           (-60.0 70.0)
  end
  begin
     id 3 
     name ltibia
     direction 0.34202 -0.939693 0   
     length 7.49137   
     axis 0 0 20   XYZ
    dof rx
    limits (-10.0 170.0)
  end
  begin
     id 4 
     name lfoot
     direction 0.0665746 -0.182912 0.980873   
     length 2.36784   
     axis -90 7.62852e-016 20   XYZ
    dof rx rz
    limits (-45.0 90.0)
           (-70.0 20.0)
  end
  begin
     id 5 
     name ltoes
     direction 1.53601e-011 -4.22058e-011 1   
     length 1.18966   
     axis -90 7.62852e-016 20   XYZ
    dof rx
    limits (-90.0 20.0)
  end
  begin
     id 6 
     name rhipjoint
     direction -0.550236 -0.756381 0.353735   
     length 2.37265  
     axis 0 0 0  XYZ 
  end
  begin
     id 7 
     name rfemur
     direction -0.34202 -0.939693 0   
     length 7.43386   
     axis 0 0 -20   XYZ
    dof rx ry rz
    limits (-160.0 20.0)
           (-70.0 70.0)
           (-70.0 60.0)
  end
  begin
     id 8 
     name rtibia
     direction -0.34202 -0.939693 0   
     length 7.50908   
     axis 0 0 -20   XYZ
    dof rx
    limits (-10.0 170.0)
 end
 begin
     id 9 
     name rfoot
     direction -0.0683029 -0.187661 0.979856   
     length 2.41173  
     axis -90 -7.62852e-016 -20   XYZ
    dof rx rz
    limits (-45.0 90.0)
           (-20.0 70.0)
  end
  begin
     id 10 
     name rtoes
     direction -1.53528e-011 -4.21968e-011 1   
     length 1.21082   
     axis -90 -7.62852e-016 -20   XYZ
    dof rx
    limits (-90.0 20.0)
  end
  begin
     id 11 
     name lowerback
     direction 0.013823 0.995423 -0.0945635   
     length 2.04495   
     axis 0 0 0   XYZ
    dof rx ry rz
    limits (-20.0 45.0)
           (-30.0 30.0)
           (-30.0 30.0)
  end
  begin
     id 12 
     name upperback
     direction 0.0276657 0.9994 -0.020853   
     length 2.05008   
     axis 0 0 0   XYZ
    dof rx ry rz
    limits (-20.0 45.0)
           (-30.0 30.0)
           (-30.0 30.0)
  end
  begin
     id 13 
     name thorax
     direction 0.019782 0.999531 0.0233827   
     length 2.06488   
     axis 0 0 0   XYZ
    dof rx ry rz
    limits (-20.0 45.0)
           (-30.0 30.0)
           (-30.0 30.0)
  end
  begin
     id 14 
     name lowerneck
     direction -0.0308541 0.994709 0.0979874   
     length 1.75553   
     axis 0 0 0   XYZ
    dof rx ry rz
    limits (-20.0 45.0)
           (-30.0 30.0)
           (-30.0 30.0)
  end
  begin
     id 15 
     name upperneck
     direction 0.0588398 0.995804 -0.0700903   
     length 1.76878   
     axis 0 0 0   XYZ
    dof rx ry rz
    limits (-20.0 45.0)
           (-30.0 30.0)
           (-30.0 30.0)
  end
  begin
     id 16
     name head
     direction 0.0209966 0.999159 -0.0352225  
     length 1.77193  
     axis 0 0 0   XYZ
    dof rx ry rz
    limits (-20.0 45.0)
           (-30.0 30.0)
           (-30.0 30.0)
  end
  begin
     id 17 
     name lclavicle
     direction 0.938182 0.335073 -0.0868338  
     length 3.58396  
     axis 0 0 0   XYZ
    dof ry rz
    limits (-20.0 10.0)
           (0.0 20.0)
  end
  begin
     id 18 
     name lhumerus
     direction 1 -4.48971e-011 -1.26313e-017   
     length 4.983   
     axis 180 -30 -90   XYZ
    dof rx ry rz
    limits (-60.0 90.0)
           (-90.0 90.0)
           (-90.0 90.0)
  end
  begin
     id 19
     name lradius
     direction 1 -4.48948e-011 -5.89033e-027   
     length 3.48356   
     axis 180 -30 -90   XYZ
    dof rx
    limits (-10.0 170.0)
  end
  begin
     id 20
     name lwrist
     direction 1 -4.48977e-011 -1.48983e-026   
     length 1.74178   
     axis 9.0955e-015 90 90   XYZ
    dof ry
    limits (-180.0 0.0)
 end
  begin
     id 21 
     name lhand
     direction 1 -4.49046e-011 -2.98066e-026   
     length 0.715259   
     axis 1.90115e-014 90 90   XYZ
    dof rx rz
    limits (-90.0 90.0)
           (-45.0 45.0)
  end
  begin
     id 22 
     name lfingers
     direction 1 -4.48907e-011 -5.95731e-026   
     length 0.576661   
     axis 3.80223e-014 90 90   XYZ
    dof rx
    limits (0.0 90.0)
  end
  begin
     id 23
     name lthumb
     direction 0.707107 -6.34963e-011 0.707107   
     length 0.827973   
     axis -90 45 -3.84942e-014   XYZ
    dof rx rz
    limits (-45.0 45.0)
           (-45.0 45.0)
  end
  begin
     id 24 
     name rclavicle
     direction -0.909637 0.398485 -0.11735   
     length 3.44819  
     axis 0 0 0   XYZ 
    dof ry rz
    limits (-10.0 20.0)
           (-20.0 0.0)
  end
  begin
     id 25 
     name rhumerus
     direction -1 -4.48978e-011 -1.09333e-027  
     length 5.2419   
     axis 180 30 90   XYZ
    dof rx ry rz
    limits (-90.0 60.0)
           (-90.0 90.0)
           (-90.0 90.0)
  end
  begin
     id 26 
     name rradius
     direction -1 -4.48953e-011 -7.61841e-027   
     length 3.44417   
     axis 180 30 90   XYZ
    dof rx
    limits (-10.0 170.0)
  end
  begin
     id 27 
     name rwrist
     direction -1 -4.48977e-011 -1.48983e-026   
     length 1.72209   
     axis 9.0955e-015 -90 -90   XYZ
    dof ry
    limits (-180.0 0.0)
  end
  begin
     id 28
     name rhand
     direction -1 -4.49027e-011 -2.98038e-026   
     length 0.622529   
     axis 1.90115e-014 -90 -90   XYZ
    dof rx rz
    limits (-90.0 90.0)
           (-45.0 45.0)
  end
  begin
     id 29
     name rfingers
     direction -1 -4.48838e-011 -5.95531e-026   
     length 0.501899   
     axis 3.80223e-014 -90 -90   XYZ
    dof rx
    limits (0.0 90.0)
  end
  begin
     id 30
     name rthumb
     direction -0.707107 -6.34937e-011 0.707107   
     length 0.720629   
     axis -90 -45 3.84942e-014   XYZ
    dof rx rz
    limits (-45.0 45.0)
           (-45.0 45.0)
  end
:hierarchy
  begin
    root lhipjoint rhipjoint lowerback
    lhipjoint lfemur
    lfemur ltibia
    ltibia lfoot
    lfoot ltoes
    rhipjoint rfemur
    rfemur rtibia
    rtibia rfoot
    rfoot rtoes
    lowerback upperback
    upperback thorax
    thorax lowerneck lclavicle rclavicle
    lowerneck upperneck
    upperneck head
    lclavicle lhumerus
    lhumerus lradius
    lradius lwrist
    lwrist lhand lthumb
    lhand lfingers
    rclavicle rhumerus
    rhumerus rradius
    rradius rwrist
    rwrist rhand rthumb
    rhand rfingers
  end

#!OML:ASF F:\VICON\USERDATA\Patient Classification 1\PLAYGROUND\JustinFriday\JustinFriday.ASF
:FULLY-SPECIFIED
:DEGREES
411
root 39.811 17.9849 -1.87546 181.826 6.46232 -168.661
lowerback 12.6166 3.69987 5.77313
upperback 3.27738 6.10401 1.10553
thorax -3.13069 3.17953 -2.98142
lowerneck -10.155 8.52392 -4.49192
upperneck 17.4922 12.0286 -0.338097
head 6.76398 5.25081 1.61381
rclavicle -6.2816e-014 -1.35174e-014
rhumerus -21.29 5.00225 -87.9902
rradius 40.1451
rwrist -12.1318
rhand -19.0965 -22.3251
rfingers 7.12502
rthumb 7.21196 -52.1822
lclavicle -6.2816e-014 -1.35174e-014
lhumerus -29.315 16.4786 66.3321
lradius 59.6899
lwrist -17.0419
lhand -33.3162 -17.287
lfingers 7.12502
lthumb -6.51944 12.5926
rfemur -4.22816 -5.12377 24.6202
rtibia 63.6073
rfoot 7.64039 6.31019
rtoes -6.26812
lfemur -32.8114 14.8771 -21.4602
ltibia 35.8587
lfoot -8.46257 11.9098
ltoes 32.3936
412
root 39.8168 18.0156 -1.99223 181.551 5.42072 -169.506
lowerback 12.6429 3.67601 5.06498
upperback 3.37107 5.98082 1.00386
thorax -3.11877 3.12535 -2.67912
lowerneck -9.33693 8.53609 -4.36331
upperneck 17.0377 12.0213 -0.778848
head 6.51516 5.24095 1.40254
rclavicle -1.98785e-015 -3.26007e-014
rhumerus -21.1507 5.60931 -87.8542
rradius 40.0712
rwrist -11.3985
rhand -17.7763 -22.4047
rfingers 7.12502
rthumb 8.48625 -52.2142
lclavicle -1.98785e-015 -3.26007e-014
lhumerus -28.8685 16.1679 66.0197
lradius 60.3041
lwrist -17.3927
lhand -34.2139 -17.0346
lfingers 7.12502
lthumb -7.38608 12.8165
rfemur -5.73526 -4.95123 23.7135
rtibia 65.9272
rfoot 6.59782 4.86478
rtoes -1.94073
lfemur -31.9847 14.3639 -22.3946
ltibia 35.3519
lfoot -8.3084 11.3405
ltoes 32.4154
413
root 39.829 18.0411 -2.10485 181.352 4.27683 -170.071
lowerback 12.8153 3.44251 4.47353
upperback 4.00563 5.65852 0.848902
thorax -2.61536 3.02529 -2.45258
lowerneck -10.6538 8.44227 -3.77539
upperneck 16.5933 12.0902 -1.65447
head 6.69617 5.26541 1.10811
rclavicle 6.57977e-014 -5.56597e-015
rhumerus -19.7211 6.60924 -88.0539
rradius 40.1925
rwrist -11.2233
rhand -16.8123 -22.7329
rfingers 7.12502
rthumb 9.41644 -52.5026
lclavicle 6.57977e-014 -5.56597e-015
lhumerus -27.1442 16.6999 65.7863
lradius 60.7911
lwrist -17.946
lhand -35.1895 -16.3569
lfingers 7.12502
lthumb -8.32762 13.459
rfemur -7.21579 -4.67174 23.1201
rtibia 68.1486
rfoot 5.19157 3.66746
rtoes 3.10509
lfemur -31.207 13.8634 -23.0178
ltibia 34.7793
lfoot -8.17675 10.6824
ltoes 31.7033
414
root 39.837 18.0667 -2.22509 181.187 3.05737 -170.627
lowerback 12.8202 3.50768 4.16908
upperback 3.74446 5.683 0.840112
thorax -2.91782 3.01187 -2.31139
lowerneck -10.4416 8.41593 -4.27043
upperneck 17.4737 12.0048 -1.03697
head 6.87149 5.19294 1.37865
rclavicle 1.43125e-014 6.2816e-014
rhumerus -20.6424 7.42047 -87.9583
rradius 40.7194
rwrist -11.3935
rhand -16.7396 -22.7305
rfingers 7.12502
rthumb 9.48661 -52.4969
lclavicle 1.43125e-014 6.2816e-014
lhumerus -27.1042 15.8938 65.5276
lradius 61.3418
lwrist -18.3742
lhand -35.721 -16.7312
lfingers 7.12502
lthumb -8.84062 13.0636
rfemur -8.64877 -4.74117 22.3561
rtibia 70.2295
rfoot 3.66452 3.77312
rtoes 1.67877
lfemur -30.4681 13.4672 -23.691
ltibia 34.3361
lfoot -8.12998 9.85726
ltoes 30.6217
415
root 39.848 18.089 -2.33848 181.061 1.92662 -171.087
lowerback 12.7413 3.50312 3.7777
upperback 3.24632 5.57559 0.872094
thorax -3.44291 2.91267 -2.0664
lowerneck -8.73157 8.57928 -4.4395
upperneck 17.6242 11.9998 -0.637182
head 6.58417 5.19996 1.44119
rclavicle -1.43125e-014 0
rhumerus -22.091 8.46447 -88.229
rradius 41.2325
rwrist -11.8031
rhand -17.2256 -22.5286
rfingers 7.12502
rthumb 9.0177 -52.3158
lclavicle -1.43125e-014 0
lhumerus -27.8578 15.0871 64.6683
lradius 61.9197
lwrist -18.5147
lhand -36.2618 -18.1506
lfingers 7.12502
lthumb -9.36245 11.6215
rfemur -10.1913 -4.91267 21.8148
rtibia 72.1385
rfoot 2.30412 3.83988
rtoes -4.62488
lfemur -29.8185 12.9843 -24.2041
ltibia 34.0211
lfoot -8.05474 9.26284
ltoes 31.0098
416
root 39.8653 18.1056 -2.44119 181.022 0.768225 -170.912
lowerback 12.8514 3.38819 3.95015
upperback 3.2806 5.47153 0.986189
thorax -3.46904 2.86673 -2.0362
lowerneck -6.31702 8.40858 -3.30183
upperneck 15.0578 11.6798 -2.33227
head 5.54105 5.13292 0.545195
rclavicle 6.0033e-014 -8.74653e-015
rhumerus -21.8683 9.02126 -88.3887
rradius 41.4137
rwrist -11.9578
rhand -17.6432 -22.2431
rfingers 7.12502
rthumb 8.61469 -52.0473
lclavicle 6.0033e-014 -8.74653e-015
lhumerus -27.0423 14.9804 64.0128
lradius 61.9474
lwrist -18.7472
lhand -37.0599 -19.7333
lfingers 7.12502
lthumb -10.1324 10.0027
rfemur -11.799 -4.83815 22.177
rtibia 73.8313
rfoot 1.48919 2.82701
rtoes -7.29176
lfemur -29.3236 12.4766 -23.9883
ltibia 33.7134
lfoot -7.97075 8.7039
ltoes 31.333
417
root 39.876 18.1296 -2.54384 180.983 -0.567087 -170.888
lowerback 12.9361 3.85166 4.2941
upperback 3.26979 5.31618 1.10272
thorax -3.49007 2.43707 -2.06366
lowerneck -5.4913 8.26264 -2.99872
upperneck 14.2563 11.4442 -2.75301
head 5.19548 5.0555 0.300526
rclavicle 1.0138e-014 -9.14409e-015
rhumerus -21.7038 8.88801 -88.2168
rradius 41.7917
rwrist -11.4023
rhand -18.0129 -21.5289
rfingers 7.12502
rthumb 8.25784 -51.3475
lclavicle 1.0138e-014 -9.14409e-015
lhumerus -26.0736 14.7085 63.7014
lradius 61.9777
lwrist -19.1356
lhand -37.7663 -20.3354
lfingers 7.12502
lthumb -10.8138 9.36623
rfemur -13.2955 -4.63558 22.3209
rtibia 75.3447
rfoot 0.849935 1.45422
rtoes -7.34377
lfemur -28.8069 12.1078 -24.0367
ltibia 33.3973
lfoot -7.75116 7.79433
ltoes 31.7284
418
root 39.8859 18.1639 -2.64152 180.914 -1.88833 -171.365
lowerback 13.0245 3.79685 3.87947
upperback 3.29247 5.19825 1.12554
thorax -3.56296 2.38128 -1.79972
lowerneck -6.09105 8.20944 -3.28483
upperneck 14.9167 11.3986 -2.30596
head 5.45881 5.01403 0.51959
rclavicle -3.88624e-014 1.27222e-014
rhumerus -21.6301 8.81216 -88.0687
rradius 42.3377
rwrist -10.5825
rhand -18.0269 -21.2605
rfingers 7.12502
rthumb 8.24438 -51.0796
lclavicle -3.88624e-014 1.27222e-014
lhumerus -25.3547 14.6229 63.3701
lradius 62.2191
lwrist -19.6073
lhand -38.4662 -20.481
lfingers 7.12502
lthumb -11.4889 9.18415
rfemur -14.831 -4.32042 21.9028
rtibia 76.7799
rfoot 0.371435 0.106175
rtoes -1.40826
lfemur -28.1752 11.6631 -24.6116
ltibia 33.0642
lfoot -7.54655 6.91144
ltoes 32.2293
419
root 39.9022 18.1952 -2.73251 180.855 -3.13874 -171.469
lowerback 13.2267 3.71969 3.66583
upperback 3.232 5.09015 1.2526
thorax -3.77423 2.32504 -1.55076
lowerneck -7.81287 8.27177 -3.8327
upperneck 16.7384 11.5534 -1.31639
head 6.23108 5.02991 1.04156
rclavicle 1.6201e-014 1.98785e-015
rhumerus -21.6333 9.26143 -88.1596
rradius 42.6526
rwrist -10.4974
rhand -18.1159 -21.0408
rfingers 7.12502
rthumb 8.15851 -50.8633
lclavicle 1.6201e-014 1.98785e-015
lhumerus -24.5383 14.6983 62.8716
lradius 61.9061
lwrist -20.1304
lhand -39.4559 -21.8052
lfingers 7.12502
lthumb -12.4433 7.80436
rfemur -16.392 -3.99361 21.957
rtibia 78.0907
rfoot -0.0463809 -1.37576
rtoes 1.15322
lfemur -27.627 11.2851 -24.7347
ltibia 32.7753
lfoot -7.56899 6.00844
ltoes 31.9635
420
root 39.9172 18.2166 -2.82931 180.761 -4.42421 -171.707
lowerback 13.3421 3.66312 3.411
upperback 3.27493 4.98583 1.32195
thorax -3.82624 2.27356 -1.328
lowerneck -9.44708 8.2635 -4.51775
upperneck 18.0966 11.6419 -0.399728
head 6.84711 5.03235 1.55231
rclavicle 1.87852e-014 -2.5842e-014
rhumerus -21.4374 10.1074 -88.207
rradius 42.9179
rwrist -11.2212
rhand -18.5694 -20.0793
rfingers 7.12502
rthumb 7.72075 -49.9184
lclavicle 1.87852e-014 -2.5842e-014
lhumerus -23.4965 14.6159 62.4616
lradius 61.5224
lwrist -20.3353
lhand -40.34 -22.8571
lfingers 7.12502
lthumb -13.2955 6.69877
rfemur -17.7162 -3.87133 21.7378
rtibia 79.2949
rfoot -0.952471 -2.73477
rtoes 1.47265
lfemur -26.9811 11.0302 -25.0332
ltibia 32.4472
lfoot -7.5951 4.94722
ltoes 31.8819
421
root 39.925 18.2454 -2.93262 180.693 -5.82222 -172.036
lowerback 13.2501 3.57285 3.19797
upperback 3.45851 4.81787 1.3519
thorax -3.61155 2.19377 -1.13957
lowerneck -9.92221 8.05961 -4.92858
upperneck 17.8653 11.4585 -0.203
head 6.823 4.9555 1.6788
rclavicle -4.96962e-016 3.97569e-015
rhumerus -20.9982 10.9392 -88.1036
rradius 43.285
rwrist -11.7655
rhand -19.0995 -19.2958
rfingers 7.12502
rthumb 7.20906 -49.153
lclavicle -4.96962e-016 3.97569e-015
lhumerus -22.5702 14.5324 62.074
lradius 61.5543
lwrist -20.2347
lhand -40.7366 -22.9881
lfingers 7.12502
lthumb -13.6778 6.5424
rfemur -19.0081 -3.99509 21.2752
rtibia 80.4174
rfoot -1.85653 -3.72898
rtoes 3.12935
lfemur -26.0282 10.392 -25.3405
ltibia 32.1155
lfoot -7.93903 3.92168
ltoes 33.0818
422
root 39.9372 18.2728 -3.02547 180.686 -7.25352 -171.837
lowerback 13.1744 3.41468 3.44234
upperback 3.54161 4.63312 1.52216
thorax -3.48415 2.10068 -1.06203
lowerneck -5.52352 7.77028 -3.18059
upperneck 13.2578 10.8396 -2.79492
head 4.8845 4.82027 0.260725
rclavicle 7.31528e-014 -7.55382e-015
rhumerus -20.5871 11.3864 -88.0099
rradius 43.7217
rwrist -11.6999
rhand -19.3653 -19.3735
rfingers 7.12502
rthumb 6.95256 -49.2393
lclavicle 7.31528e-014 -7.55382e-015
lhumerus -21.6194 14.733 61.6497
lradius 61.3021
lwrist -20.1699
lhand -40.9007 -23.9306
lfingers 7.12502
lthumb -13.8359 5.58925
rfemur -20.5662 -4.08795 21.5013
rtibia 81.5174
rfoot -2.4151 -4.72122
rtoes 2.50442
lfemur -25.4381 9.83636 -25.1888
ltibia 31.5842
lfoot -7.6966 3.13532
ltoes 32.6599
423
root 39.9643 18.2882 -3.10454 180.686 -8.66612 -171.846
lowerback 13.343 3.29439 3.31547
upperback 3.54615 4.46778 1.63654
thorax -3.59728 2.01621 -0.857621
lowerneck -8.45061 7.82127 -4.09663
upperneck 15.7985 11.086 -1.3641
head 6.03762 4.85542 1.04228
rclavicle -7.95139e-016 -1.35174e-014
rhumerus -20.269 11.4678 -88.014
rradius 44.2449
rwrist -11.4586
rhand -19.3176 -19.5838
rfingers 7.12502
rthumb 6.99856 -49.4481
lclavicle -7.95139e-016 -1.35174e-014
lhumerus -20.4799 14.8347 61.3036
lradius 60.8708
lwrist -19.8466
lhand -41.1761 -24.147
lfingers 7.12502
lthumb -14.1014 5.35457
rfemur -22.2531 -3.93381 21.5828
rtibia 82.6497
rfoot -3.42635 -5.80351
rtoes 4.85486
lfemur -24.9368 9.28451 -25.2306
ltibia 30.8051
lfoot -7.1116 2.44425
ltoes 32.3019
